<svg xmlns="http://www.w3.org/2000/svg" fill="white" viewBox="0 0 302.4 302.4" class="_38MsEAc6a9scAiLTOkzRVr"><path d="M204.8 97.6C191.2 84 172 75.2 151.2 75.2s-40 8.4-53.6 22.4c-13.6 13.6-22.4 32.8-22.4 53.6s8.8 40 22.4 53.6c13.6 13.6 32.8 22.4 53.6 22.4s40-8.4 53.6-22.4c13.6-13.6 22.4-32.8 22.4-53.6s-8.4-40-22.4-53.6zm-14.4 92.8c-10 10-24 16-39.2 16s-29.2-6-39.2-16-16-24-16-39.2 6-29.2 16-39.2 24-16 39.2-16 29.2 6 39.2 16 16 24 16 39.2-6 29.2-16 39.2z" stroke="white" stroke-width="12"></path><path d="M292 140.8h-30.8c-5.6 0-10.4 4.8-10.4 10.4 0 5.6 4.8 10.4 10.4 10.4H292c5.6 0 10.4-4.8 10.4-10.4 0-5.6-4.8-10.4-10.4-10.4zM151.2 250.8c-5.6 0-10.4 4.8-10.4 10.4V292c0 5.6 4.8 10.4 10.4 10.4 5.6 0 10.4-4.8 10.4-10.4v-30.8c0-5.6-4.8-10.4-10.4-10.4zM258 243.6l-22-22c-3.6-4-10.4-4-14.4 0s-4 10.4 0 14.4l22 22c4 4 10.4 4 14.4 0s4-10.4 0-14.4zM151.2 0c-5.6 0-10.4 4.8-10.4 10.4v30.8c0 5.6 4.8 10.4 10.4 10.4 5.6 0 10.4-4.8 10.4-10.4V10.4c0-5.6-4.8-10.4-10.4-10.4zM258.4 44.4c-4-4-10.4-4-14.4 0l-22 22c-4 4-4 10.4 0 14.4 3.6 4 10.4 4 14.4 0l22-22c4-4 4-10.4 0-14.4zM41.2 140.8H10.4c-5.6 0-10.4 4.8-10.4 10.4s4.4 10.4 10.4 10.4h30.8c5.6 0 10.4-4.8 10.4-10.4 0-5.6-4.8-10.4-10.4-10.4zM80.4 221.6c-3.6-4-10.4-4-14.4 0l-22 22c-4 4-4 10.4 0 14.4s10.4 4 14.4 0l22-22c4-4 4-10.4 0-14.4zM80.4 66.4l-22-22c-4-4-10.4-4-14.4 0s-4 10.4 0 14.4l22 22c4 4 10.4 4 14.4 0s4-10.4 0-14.4z" stroke="white" stroke-width="5"></path></svg>